<svg xmlns="http://www.w3.org/2000/svg" viewBox="0 0 704.54 557.69"><defs><style>.cls-1{fill:#fdd100;}.cls-2{fill:#9e574b;}.cls-3{fill:#ffc871;}.cls-4{fill:#f4f7fa;}.cls-5{fill:#b3e5fc;}.cls-6{fill:#5ac3f2;}.cls-7{fill:#fff;}</style></defs><g id="Layer_2" data-name="Layer 2"><g id="Image"><path class="cls-1" d="M697.82,124.53a81.83,81.83,0,0,0-3.23-16.87,100.07,100.07,0,0,0-6.81-24.76c-11.56-27.27-34.89-48.09-61-61.15C595.54,6,560.16,1.22,525.56.21A616.78,616.78,0,0,0,423.92,6.1C354.3,15.79,286.54,37,223.23,67.25,162.8,96.11,101.35,133,53.91,180.88c-21.53,21.75-39.84,47.51-48.38,77.23-8.4,29.57-6.82,61.3,1.94,90.58,18.8,62.66,67.69,109,124.1,139.11,29.93,16,62,28.21,94.53,37.68,36.25,10.62,74.15,17.37,112,15.36C400,537.54,461.46,508.4,491.25,452c15.07-28.57,22.61-60.22,34.88-89.94,14.43-34.74,38.12-60.94,66.76-84.77C640.19,238,703.71,194.37,697.82,124.53Z"/><path class="cls-2" d="M204.1,486.7S103.22,531.23,94.31,473.52c-3.73-24.16,26.15-45.92,46.6-31.09,15.84,11.48.34,31.09.34,31.09s-.28-15.32-10.1-17.77c-14.51-3.62-22,14.59-10.69,23.77,23.28,18.91,78.25-15.36,78.25-15.36Z"/><path class="cls-3" d="M511.89,308.16c-49-47.51-137.17-104.57-226.78-70.65-128.68,48.7-124.56,248.32-46.74,280.67C365.4,571,544.2,495.83,544.2,495.83S549.84,345,511.89,308.16Z"/><path class="cls-2" d="M631.11,451.87c16.32,8.13,70.3-8.91,73.26-33.42,3.38-28-43.94-75.82-74.12-112.48-16.25-19.74-36.56-24.51-43.58-14.56-19.59,27.79,22.92,98.66,34.39,127.13C627.45,434.39,622.72,447.69,631.11,451.87Z"/><path class="cls-3" d="M385,402.7c0-46.37,12.79-93.66,69.43-110.59,23.24-6.95,62.26,2.25,81.06-.31,17.62-2.4,23.8-6.14,39.07-2.45,20.49,4.95,43.07,9,56.79,66.63,11.39,47.87,19.87,99.73-1.32,122.76-22.51,24.47-60.65,38.65-80.87,44-29.35,7.72-85.61,8.42-110.59-8.8C414.26,497.15,385,437.48,385,402.7Z"/><path d="M631.36,356.66a.68.68,0,0,1-.66-.52c-13.28-55.81-34.37-60.87-54.76-65.76l-1.53-.37c-10.88-2.63-17-1.45-26.3.33-3.56.68-7.6,1.46-12.52,2.13-7.69,1-18.79.14-30.54-.82-17.21-1.4-36.71-3-50.41,1.11a.69.69,0,0,1-.85-.46.68.68,0,0,1,.46-.85c13.95-4.17,33.58-2.56,50.91-1.15,11.68.95,22.71,1.85,30.25.82,4.88-.66,8.9-1.43,12.45-2.12,9.46-1.81,15.7-3,26.87-.32l1.53.37c19.82,4.76,42.29,10.15,55.76,66.78a.66.66,0,0,1-.5.81A.44.44,0,0,1,631.36,356.66Z"/><path d="M501.68,528.75c-69.37,0-96.56-57.52-96.84-58.12a.67.67,0,0,1,.34-.9.68.68,0,0,1,.9.33c.28.61,28.81,60.91,102.11,57.17,45.36-2.32,82-21.06,82.37-21.25a.68.68,0,0,1,.91.29.69.69,0,0,1-.29.92c-.37.19-37.26,19.06-82.92,21.39C506,528.7,503.83,528.75,501.68,528.75Z"/><path d="M529,330a169.84,169.84,0,0,1-17.2-.88.68.68,0,0,1-.6-.75.68.68,0,0,1,.75-.6c.22,0,21.56,2.39,35.89-.79,7.46-1.66,13.53-8.2,18.88-14,5.17-5.57,9.63-10.38,14.55-10.4a.68.68,0,0,1,0,1.36c-4.32,0-8.6,4.63-13.55,10-5.49,5.91-11.71,12.62-19.58,14.36A92,92,0,0,1,529,330Z"/><path d="M527.78,312.8c-13.89,0-25.81-8-26-8.09a.67.67,0,0,1-.17-.94.68.68,0,0,1,.94-.18c.26.18,26.27,17.53,45.61.06a.68.68,0,0,1,.92,1A30.91,30.91,0,0,1,527.78,312.8Z"/><path d="M540.55,506a.68.68,0,0,1-.68-.68.67.67,0,0,1,.67-.68c.7,0,17.18-.24,22-18.45a.68.68,0,1,1,1.31.35A25.17,25.17,0,0,1,540.55,506Z"/><path class="cls-2" d="M492.88,466.3c-5.2-45.81,24-114.74,62.17-110.36,22.22,2.54,21.11,33.13,26.53,45.8,5.24,12.23,21.5,25.13,15.06,47.6C593,462,567.51,472.41,555.35,477.75c-7.94,3.5-24.55,10.81-33.22,10.19C513,487.28,494.55,481,492.88,466.3Z"/><path d="M530.27,396.08c2.85,1.35,11.26-3.08,13.6-1.19,1.67,1.35,2.28,4.79,2.72,6.79,1,4.72,4.06,5.54,7.29,2.14,5.34-5.61,2.36-11.82,5.18-13.81s7.55-4.13,10.21-6.45c3.36-2.93-.17-11.29-4-13.81-9.92-6.5-34-.14-38.91,9.4C524.29,383.19,525.6,393.87,530.27,396.08Z"/><path class="cls-3" d="M283,351.5c41.4-5.7,62.55,28.23,64.8,51.11,9.62,98.08-86.86,85.35-96.92,101.45-8.46,13.55,23.19,31,55.14,23.14,52.19-12.86,44.53,14.45,32.57,22.09-27.05,17.28-92.29,2.15-113.32-13.18-29.33-21.38-38.8-51.65-19.62-113.65C219.73,376.85,245.65,356.63,283,351.5Z"/><path d="M338.55,550a.68.68,0,0,1-.37-1.25c5.65-3.61,10.21-11.64,7.74-17.41-1.92-4.48-9.64-10.88-39.78-3.45-23.31,5.74-47.23-1.81-54.95-12.46-2.89-4-3.21-8-.93-11.7,2.85-4.56,12-6.85,23.52-9.74,32-8,80.28-20.15,73.3-91.29-1.1-11.23-7.56-28.44-22.14-39.94-11.52-9.09-26-12.75-41.89-10.56a.68.68,0,0,1-.19-1.35c16.26-2.23,31.11,1.52,42.93,10.85,14.91,11.76,21.51,29.37,22.64,40.87,7.1,72.3-43.87,85.09-74.32,92.74-11.25,2.82-20.13,5.05-22.69,9.14s-.9,7.74.88,10.19c7.45,10.29,30.74,17.54,53.52,11.93,31.11-7.67,39.26-.64,41.35,4.23,2.74,6.39-2.15,15.19-8.26,19.09A.61.61,0,0,1,338.55,550Z"/><path class="cls-3" d="M505.1,523.21c-36.21,5.42-114.89-39.78-114.89-39.78l-31.74,53.29c97.74,34.51,151.63,17,162.42,12.63,13.6-5.56,23.24-11.54,18.81-21.27C535.56,519,505.1,523.21,505.1,523.21Z"/><path d="M520.89,550a.66.66,0,0,1-.61-.39.67.67,0,0,1,.32-.9c9.32-4.38,18.15-9.19,19.66-14.67a6.52,6.52,0,0,0-1.13-5.61c-6-8.88-33.65-4.62-33.92-4.58-22.37,3.35-61.2-10.2-87.82-24.2a.68.68,0,0,1,.64-1.2c26.42,13.9,64.91,27.36,87,24.06,1.17-.19,28.8-4.44,35.26,5.16a7.89,7.89,0,0,1,1.31,6.73c-1.74,6.31-11.44,11.33-20.39,15.54A.72.72,0,0,1,520.89,550Z"/><path class="cls-4" d="M538.76,386.5c-5.56.89-8.86-.69-8.86-3.63,0-2.54,4.85-1.92,8.29-2,6.89-.14,13.89-4.22,11.36.7C548.38,383.87,542.16,386,538.76,386.5Z"/><path class="cls-2" d="M496.72,351.46c-12.79,1.51-22.57,15.89-23.62,24.68-1.24,10.37,6.76,24.41,19.18,21.07,14.89-4,22.42-25,21.76-34.14C513.21,351.46,503.13,350.7,496.72,351.46Z"/><path class="cls-2" d="M594.21,344c11.4,3.5,15.08,11.1,16.06,18.39,1.15,8.6-6.49,21.07-18,18.3-13.8-3.33-20.49-21-18.92-29.46C575.28,340.86,589,342.4,594.21,344Z"/><path d="M486.44,365.67a2,2,0,0,1-.15-4.07c.06,0,5.9-.46,20.1-3a2,2,0,1,1,.7,4c-14.45,2.53-20.26,3-20.5,3Z"/><path d="M589.72,353.78a76.79,76.79,0,0,1-9.75-.52,2,2,0,0,1,.58-4,94.1,94.1,0,0,0,19.47,0,2,2,0,0,1,.38,4.06C596.32,353.66,592.72,353.78,589.72,353.78Z"/><path class="cls-2" d="M306.9,447.15c7.45,18.25,65.34,55.68,97.26,31.08,26.72-20.59,10.8-92.47,35.19-137.78,7.53-14,3.47-43.82-11.57-40.37-37.92,8.69-81.41,81-97,110.35C322.17,426.78,303.07,437.77,306.9,447.15Z"/><circle class="cls-5" cx="604.36" cy="518.18" r="30.21"/><path class="cls-6" d="M574.15,518.18a30.21,30.21,0,1,1,30.21,30.21Z"/><path class="cls-7" d="M553.41,426.41l15.1-6.21s.83-10.54,5.64-10.54c7.43,0,5,11.15,5,11.15s8.75,3.52,6.43,8.33c-2.95,6.12-13.2.81-13.2.81l-17.17,5.31Z"/><path d="M549.36,440.63a5.06,5.06,0,0,1-3.36-1.08c-1.94-1.73-2.82-3.87-2.36-5.7a3,3,0,0,1,2.21-2.31c1.33-.33,2.82.3,4.08,1.72a.68.68,0,1,1-1,.9c-.92-1-1.92-1.51-2.75-1.3a1.66,1.66,0,0,0-1.21,1.32c-.34,1.34.39,3,1.95,4.36,1,.9,3.27,1,5.07.17a3.81,3.81,0,0,0,2.5-3.45c0-2.29-1-5.78-2-9.83-1.72-6.37-3.85-14.29-3.05-20.82a.68.68,0,0,1,.76-.59.67.67,0,0,1,.59.76c-.77,6.26,1.32,14,3,20.3,1.11,4.13,2.08,7.71,2.08,10.17a5.08,5.08,0,0,1-3.31,4.7A7.73,7.73,0,0,1,549.36,440.63Z"/><path class="cls-3" d="M662.51,464.37c-47.48-20.13-69.44,1.62-76,5.32-12.19,6.83-22.1,15.7-14.43,22.53,10,8.86,21.57,1.9,28.79,2.12,30.24.93,43.77,13.29,58.83,11.21C681.81,502.48,680.57,472,662.51,464.37Z"/><path d="M575.4,495.29a.71.71,0,0,1-.28-.06c-3-1.36-4.14-4.37-3.07-8.24,3.4-12.3,29.42-34.15,74.18-28.93a.68.68,0,0,1-.16,1.35c-41.92-4.89-69.21,15.28-72.71,27.94-.51,1.86-.89,5.19,2.32,6.64a.68.68,0,0,1-.28,1.3Z"/><path d="M634.57,501.31a.86.86,0,0,1-.27-.05,75.54,75.54,0,0,0-36.08-6.06.68.68,0,0,1-.76-.59.67.67,0,0,1,.58-.76,77.08,77.08,0,0,1,36.8,6.16.68.68,0,0,1-.27,1.3Z"/><path d="M499.76,383.18c-6.26,0-8.66-9.62-8.76-10.06a.68.68,0,0,1,.5-.82.69.69,0,0,1,.82.51c0,.1,2.56,10.25,8.63,8.87,5.32-1.22,4.69-10.71,4.68-10.81a.68.68,0,0,1,.63-.73.7.7,0,0,1,.73.63c0,.44.72,10.76-5.74,12.23A6.58,6.58,0,0,1,499.76,383.18Z"/><path d="M457.72,217.47c-14.78,0-38.43-1.55-40.67-11.29-2-8.62,10.84-13.41,24.43-18.47,12.48-4.65,25.38-9.46,24.51-17.05-.76-6.59-6-7.36-16.55-8.9a151.55,151.55,0,0,1-23.88-5,.68.68,0,1,1,.4-1.3,151.08,151.08,0,0,0,23.68,5c10.49,1.53,16.82,2.45,17.7,10.09,1,8.64-12.42,13.64-25.39,18.47-12.43,4.64-25.29,9.43-23.58,16.89,3,12.85,50.51,9.94,51,9.91a.67.67,0,0,1,.72.63.68.68,0,0,1-.63.73C468.84,217.18,464.11,217.47,457.72,217.47Z"/><path d="M533.7,243.07c-11.73,0-30.61-1.24-32.41-9-1.6-7,8.62-10.76,19.44-14.8,9.83-3.66,20-7.46,19.32-13.35-.58-5.12-4.73-5.73-13-6.93a121,121,0,0,1-18.94-4,.69.69,0,0,1-.46-.85.68.68,0,0,1,.85-.45,119.8,119.8,0,0,0,18.74,3.93c8.38,1.22,13.44,2,14.15,8.11.8,7-9.88,10.94-20.21,14.79-9.79,3.65-19.92,7.42-18.59,13.21,1.92,8.35,29.71,8.42,40.25,7.74a.68.68,0,0,1,.09,1.36C542.47,242.84,538.74,243.07,533.7,243.07Z"/><path d="M610.17,345.75c-6,0-8.25-9.15-8.35-9.57a.68.68,0,0,1,.5-.82.68.68,0,0,1,.82.5c0,.1,2.42,9.7,8.15,8.4,5-1.15,4.42-10.13,4.41-10.22a.69.69,0,0,1,.63-.73.68.68,0,0,1,.73.63c0,.42.69,10.24-5.47,11.64A6,6,0,0,1,610.17,345.75Z"/></g></g></svg>