<svg id="visual" viewBox="0 0 540 960" width="540" height="960" xmlns="http://www.w3.org/2000/svg" xmlns:xlink="http://www.w3.org/1999/xlink" version="1.1"><path d="M0 643L12.8 647C25.7 651 51.3 659 77 670.3C102.7 681.7 128.3 696.3 154 677.2C179.7 658 205.3 605 231.2 621.2C257 637.3 283 722.7 308.8 741.7C334.7 760.7 360.3 713.3 386 705.3C411.7 697.3 437.3 728.7 463 707.5C488.7 686.3 514.3 612.7 527.2 575.8L540 539L540 961L527.2 961C514.3 961 488.7 961 463 961C437.3 961 411.7 961 386 961C360.3 961 334.7 961 308.8 961C283 961 257 961 231.2 961C205.3 961 179.7 961 154 961C128.3 961 102.7 961 77 961C51.3 961 25.7 961 12.8 961L0 961Z" fill="#000000" stroke-linecap="round" stroke-linejoin="miter"></path></svg>